<svg width="20" height="18" viewBox="0 0 20 18" fill="none" xmlns="http://www.w3.org/2000/svg">
<path d="M16.6406 18H3.35937C2.36859 18 1.56249 17.2261 1.56249 16.2749V7.19848C1.56249 6.86711 1.8423 6.59844 2.18749 6.59844C2.53269 6.59844 2.81249 6.86711 2.81249 7.19848V16.2749C2.81249 16.5644 3.05781 16.7999 3.35937 16.7999H16.6406C16.9422 16.7999 17.1875 16.5644 17.1875 16.2749V7.19848C17.1875 6.86711 17.4673 6.59844 17.8125 6.59844C18.1577 6.59844 18.4375 6.86711 18.4375 7.19848V16.2749C18.4375 17.2261 17.6315 18 16.6406 18Z" fill="#404040"/>
<path d="M19.375 9.29844C19.215 9.29844 19.0551 9.23987 18.9331 9.12267L11.1601 1.66013C10.5204 1.04599 9.47961 1.04599 8.83992 1.66013L1.06694 9.12271C0.822882 9.35706 0.427139 9.35706 0.183076 9.12271C-0.0610255 8.88839 -0.0610255 8.50845 0.183076 8.27413L7.95605 0.81152C9.08309 -0.270507 10.917 -0.270507 12.0439 0.81152L19.8169 8.2741C20.061 8.50845 20.061 8.88835 19.8169 9.12267C19.6949 9.23987 19.535 9.29844 19.375 9.29844Z" fill="#404040"/>
<path d="M12.5 18H7.5C7.1548 18 6.875 17.7313 6.875 17.4V12.0746C6.875 11.0406 7.75117 10.1994 8.82812 10.1994H11.1719C12.2488 10.1994 13.125 11.0406 13.125 12.0746V17.4C13.125 17.7313 12.8452 18 12.5 18ZM8.125 16.7999H11.875V12.0746C11.875 11.7024 11.5596 11.3995 11.1719 11.3995H8.82812C8.44043 11.3995 8.125 11.7024 8.125 12.0746V16.7999Z" fill="#404040"/>
</svg>
