<svg width="20" height="18" viewBox="0 0 20 18" fill="none" xmlns="http://www.w3.org/2000/svg">
<path d="M17.9166 0H2.08332C0.934998 0 0 1.26225 0 2.81253V15.1875C0 16.7378 0.934998 18 2.08332 18H17.9166C19.0649 18 19.9999 16.7378 19.9999 15.1875V2.81253C20 1.26225 19.065 0 17.9166 0ZM19.1666 15.1875C19.1666 16.1179 18.6058 16.875 17.9166 16.875H2.08332C1.39414 16.875 0.833319 16.1179 0.833319 15.1875V2.81253C0.833319 1.88214 1.39414 1.12503 2.08332 1.12503H17.9166C18.6058 1.12503 19.1666 1.88214 19.1666 2.81253L19.1666 15.1875Z" fill="#404040"/>
<path d="M19.5833 3.37499H0.416679C0.186679 3.37499 0 3.62701 0 3.93751V7.3125C0 7.623 0.186679 7.87502 0.416679 7.87502H19.5833C19.8133 7.87502 20 7.623 20 7.3125V3.93751C20 3.62701 19.8133 3.37499 19.5833 3.37499ZM19.1666 6.74998H0.833319V4.49997H19.1666L19.1666 6.74998Z" fill="#404040"/>
<path d="M7.91667 11.25H2.91667C2.68667 11.25 2.5 11.502 2.5 11.8125C2.5 12.123 2.68667 12.375 2.91667 12.375H7.91667C8.14666 12.375 8.33334 12.123 8.33334 11.8125C8.33334 11.502 8.14666 11.25 7.91667 11.25Z" fill="#404040"/>
<path d="M7.91667 13.5H2.91667C2.68667 13.5 2.5 13.752 2.5 14.0625C2.5 14.373 2.68667 14.625 2.91667 14.625H7.91667C8.14666 14.625 8.33334 14.373 8.33334 14.0625C8.33331 13.752 8.14666 13.5 7.91667 13.5Z" fill="#404040"/>
<path d="M16.25 10.125H15.4167C14.7275 10.125 14.1667 10.8821 14.1667 11.8125V12.9375C14.1667 13.8678 14.7275 14.625 15.4167 14.625H16.25C16.9391 14.625 17.5 13.8678 17.5 12.9375V11.8125C17.5 10.8821 16.9391 10.125 16.25 10.125ZM16.6666 12.9375C16.6666 13.248 16.48 13.5 16.25 13.5H15.4167C15.1867 13.5 15 13.248 15 12.9375V11.8125C15 11.502 15.1867 11.25 15.4167 11.25H16.25C16.48 11.25 16.6666 11.502 16.6666 11.8125V12.9375Z" fill="#404040"/>
</svg>
