<svg width="20" height="18" viewBox="0 0 20 18" fill="none" xmlns="http://www.w3.org/2000/svg">
<path d="M18.0833 0H4.08796C3.03241 0.00508475 2.17593 0.945763 2.17593 2.11017V2.13559H1.91667C0.861111 2.13559 0.00462963 3.07119 0 4.23051V15.8898C0.00462963 17.0492 0.856482 17.9949 1.91667 18H15.912C16.9676 17.9949 17.8241 17.0542 17.8241 15.8898V15.8644H18.0833C19.1389 15.8644 19.9954 14.9288 20 13.7695V2.11017C19.9954 0.945763 19.1435 0.00508475 18.0833 0ZM15.912 16.9831H1.91667C1.37037 16.978 0.930556 16.4898 0.925926 15.8898V4.23051C0.930556 3.63559 1.37037 3.15254 1.91667 3.15254H15.912C16.4537 3.15254 16.8981 3.63051 16.8981 4.23051V7.13898C16.8148 7.15932 16.7315 7.16949 16.6528 7.16949H13.9815C12.5278 7.16949 11.3472 8.4661 11.3472 10.0627C11.3472 11.6593 12.5278 12.9559 13.9815 12.961H16.6481C16.7315 12.9559 16.8148 12.9458 16.8935 12.9356L16.8981 15.8898C16.8981 16.4898 16.4583 16.978 15.912 16.9831ZM19.0741 13.7695C19.0694 14.3644 18.6296 14.8475 18.0833 14.8475H17.8241V12.5695C18.0231 12.422 18.2037 12.239 18.3565 12.0356L19.0741 11.0186V13.7695ZM17.625 11.4203C17.3935 11.7508 17.0324 11.9441 16.6528 11.9492H13.9815C13.037 11.9441 12.2731 11.1051 12.2731 10.0678C12.2731 9.03051 13.037 8.19153 13.9815 8.18644H16.6481C16.9676 8.18644 17.2824 8.11017 17.5694 7.95763C17.875 7.8 18.1435 7.56102 18.3519 7.2661L19.0694 6.24915L19.0741 9.35593L17.625 11.4203ZM19.0741 4.58644L17.8241 6.35593V4.23051C17.8241 3.07119 16.9676 2.13559 15.912 2.13559H3.10185V2.11017C3.10185 1.51017 3.54167 1.02203 4.08796 1.01695H18.0833C18.6296 1.02203 19.0694 1.51017 19.0741 2.11017V4.58644Z" fill="#404040"/>
<path d="M15.0185 9.55931H13.9074C13.6528 9.55931 13.4444 9.78812 13.4444 10.0678C13.4444 10.3474 13.6528 10.5763 13.9074 10.5763H15.0185C15.2731 10.5763 15.4815 10.3474 15.4815 10.0678C15.4815 9.78812 15.2731 9.55931 15.0185 9.55931Z" fill="#404040"/>
</svg>
