<svg width="20" height="20" viewBox="0 0 20 20" fill="none" xmlns="http://www.w3.org/2000/svg">
<path d="M11.8592 11.672H8.14296C7.83197 11.672 7.57989 11.9214 7.57989 12.229V19.4429C7.57989 19.7506 7.83197 20 8.14296 20H11.8592C12.1702 20 12.4223 19.7506 12.4223 19.4429V12.229C12.4223 11.9214 12.1702 11.672 11.8592 11.672ZM11.2961 18.8859H8.70603V12.7861H11.2961V18.8859Z" fill="#404040"/>
<path d="M19.2355 7.29903H15.491C15.18 7.29903 14.9279 7.54842 14.9279 7.85609V19.4429C14.9279 19.7506 15.18 20 15.491 20H19.2355C19.5464 20 19.7985 19.7506 19.7985 19.4429V7.85609C19.7985 7.54847 19.5464 7.29903 19.2355 7.29903ZM18.6724 18.8859H16.0541V8.41315H18.6724V18.8859Z" fill="#404040"/>
<path d="M4.51115 14.3737H0.766722C0.455736 14.3737 0.20365 14.6231 0.20365 14.9307V19.4429C0.20365 19.7506 0.455736 20 0.766722 20H4.51115C4.82214 20 5.07423 19.7506 5.07423 19.4429V14.9307C5.07423 14.6231 4.82214 14.3737 4.51115 14.3737ZM3.94808 18.8859H1.32979V15.4878H3.94808V18.8859Z" fill="#404040"/>
<path d="M19.8548 0.558652C19.7692 0.441898 19.6345 0.37014 19.4888 0.363689L14.3649 0.00159163C14.0539 -0.0214926 13.7829 0.209243 13.7596 0.516855C13.7362 0.82452 13.9694 1.09263 14.2804 1.11571L17.9069 1.35935L11.2398 6.51923L6.14406 2.5641C5.92646 2.39361 5.6158 2.40544 5.41205 2.59193L0.175522 7.54971C-0.0470879 7.75864 -0.0595898 8.10549 0.147392 8.32961C0.247839 8.45857 0.405298 8.53129 0.569709 8.52457C0.718224 8.5225 0.859894 8.46241 0.963843 8.35744L5.83442 3.73383L10.8739 7.66108C11.0796 7.824 11.372 7.824 11.5777 7.66108L18.7851 2.11244L18.5034 5.57219C18.502 5.87469 18.734 6.12829 19.0384 6.15708H19.0665C19.3568 6.15852 19.6005 5.94143 19.6296 5.65573L19.9956 0.948578C20.0162 0.803622 19.9636 0.657866 19.8548 0.558652Z" fill="#404040"/>
</svg>
