<svg width="20" height="20" viewBox="0 0 20 20" fill="none" xmlns="http://www.w3.org/2000/svg">
<path d="M7.95129 13.4769L10.7134 5.19047C10.8157 4.88348 10.6498 4.55164 10.3428 4.4493C10.0359 4.34699 9.70399 4.51289 9.60164 4.81989L6.83954 13.1063C6.73723 13.4133 6.90313 13.7452 7.21012 13.8475C7.27157 13.868 7.33407 13.8777 7.39547 13.8777C7.64078 13.8777 7.86942 13.7225 7.95129 13.4769Z" fill="#404040"/>
<path d="M12.091 10.9063C13.0603 10.9063 13.8488 10.1177 13.8488 9.14845C13.8488 8.17919 13.0603 7.39063 12.091 7.39063C11.1218 7.39063 10.3332 8.17919 10.3332 9.14845C10.3332 10.1177 11.1218 10.9063 12.091 10.9063ZM12.091 8.56251C12.4141 8.56251 12.677 8.82536 12.677 9.14845C12.677 9.47153 12.4141 9.73439 12.091 9.73439C11.7679 9.73439 11.5051 9.47153 11.5051 9.14845C11.5051 8.82536 11.7679 8.56251 12.091 8.56251Z" fill="#404040"/>
<path d="M5.46188 7.39063C4.49262 7.39063 3.70406 8.17919 3.70406 9.14845C3.70406 10.1177 4.49262 10.9063 5.46188 10.9063C6.43113 10.9063 7.21969 10.1177 7.21969 9.14845C7.21969 8.17919 6.43117 7.39063 5.46188 7.39063ZM5.46188 9.73439C5.13879 9.73439 4.87594 9.47153 4.87594 9.14845C4.87594 8.82536 5.13879 8.56251 5.46188 8.56251C5.78496 8.56251 6.04781 8.82536 6.04781 9.14845C6.04781 9.47153 5.785 9.73439 5.46188 9.73439Z" fill="#404040"/>
<path d="M19.8828 7.26562L17.8396 4.54128L17.9193 3.98335C17.9454 3.80077 17.884 3.61655 17.7536 3.48616L16.5106 2.24319L17.7535 1.00023C17.9823 0.771436 17.9823 0.40042 17.7535 0.171592C17.5247 -0.0571973 17.1537 -0.0571973 16.9249 0.171592L15.682 1.41456L14.439 0.171592C14.3086 0.0411621 14.1244 -0.0200098 13.9418 0.00584961L8.14128 0.834483C8.01578 0.852413 7.89949 0.910577 7.80984 1.00023L0.628272 8.18179C-0.209424 9.01945 -0.209424 10.3825 0.628272 11.2202L6.70495 17.2969C6.82925 17.4212 6.96534 17.5266 7.10937 17.614V17.8516C7.10937 19.0362 8.07316 20 9.25781 20H17.8516C19.0362 20 20 19.0362 20 17.8516V7.61718C20 7.49042 19.9589 7.36702 19.8828 7.26562ZM1.45691 10.3915C1.07612 10.0107 1.07612 9.39121 1.45691 9.01042L8.50035 1.96698L13.8175 1.20741L14.8533 2.24323L14.0246 3.07187L13.6103 2.65753C13.3815 2.42874 13.0105 2.42874 12.7817 2.65753C12.5528 2.88632 12.5528 3.25734 12.7817 3.48616L14.439 5.14347C14.5534 5.25788 14.7034 5.31511 14.8533 5.31511C15.0032 5.31511 15.1532 5.25788 15.2676 5.14347C15.4964 4.91468 15.4964 4.54366 15.2676 4.31484L14.8532 3.9005L15.6819 3.07187L16.7177 4.10769L15.9581 9.4248L8.91468 16.4682C8.73023 16.6527 8.48499 16.7543 8.22413 16.7543C7.96327 16.7543 7.71804 16.6527 7.53359 16.4682L1.45691 10.3915ZM18.8281 17.8516C18.8281 18.39 18.39 18.8281 17.8516 18.8281H9.25781C8.74359 18.8281 8.32124 18.4286 8.28417 17.9237C8.81414 17.909 9.33972 17.7005 9.74328 17.2969L16.9248 10.1153C17.0145 10.0257 17.0727 9.90937 17.0906 9.78386L17.6052 6.18191L18.8281 7.81249V17.8516Z" fill="#404040"/>
</svg>
