<svg width="20" height="20" viewBox="0 0 20 20" fill="none" xmlns="http://www.w3.org/2000/svg">
<path d="M11.5626 11.1716C14.6427 11.1716 17.1485 8.66585 17.1485 5.58581C17.1485 2.50576 14.6427 0 11.5626 0C8.48247 0 5.97667 2.50576 5.97667 5.58581C5.97667 8.66585 8.48251 11.1716 11.5626 11.1716ZM11.5626 1.17185C13.9965 1.17185 15.9766 3.15192 15.9766 5.58581C15.9766 8.01969 13.9965 9.99976 11.5626 9.99976C9.12864 9.99976 7.14853 8.01969 7.14853 5.58581C7.14853 3.15192 9.12868 1.17185 11.5626 1.17185Z" fill="#404040"/>
<path d="M12.2131 5.01238C11.9211 4.90911 11.445 4.73563 11.2065 4.54857C11.192 4.5372 11.165 4.46919 11.184 4.36814C11.1931 4.31963 11.2351 4.15768 11.3923 4.1103C11.635 4.03674 11.8654 4.08506 12.0166 4.19701C12.2552 4.41431 12.6248 4.39779 12.843 4.15967C13.0609 3.92182 13.0454 3.55285 12.8089 3.33395C12.8089 3.33395 12.5374 3.09223 12.1492 2.97786V2.92962C12.1492 2.60603 11.8869 2.3437 11.5633 2.3437C11.2397 2.3437 10.9773 2.60603 10.9773 2.92962V3.01438C9.92414 3.39742 9.67649 4.83809 10.4834 5.47073C10.8509 5.75893 11.3762 5.95928 11.8221 6.11708C12.1126 6.21982 12.1421 6.42809 12.1157 6.58477C12.0864 6.7591 11.9362 7.05484 11.5593 7.0573C11.1686 7.0598 11.0759 7.04546 10.7908 6.85883C10.52 6.68164 10.1569 6.75738 9.97961 7.0282C9.80238 7.29897 9.8782 7.66213 10.149 7.83935C10.4605 8.04321 10.7072 8.14423 10.9773 8.19153V8.24789C10.9773 8.57148 11.2396 8.83382 11.5632 8.83382C11.8868 8.83382 12.1492 8.57148 12.1492 8.24789V8.12528C13.5688 7.61221 13.7572 5.55854 12.2131 5.01238Z" fill="#404040"/>
<path d="M16.955 11.4065L10.238 12.9349C10.0843 12.7953 9.90777 12.6781 9.71226 12.5901L6.26315 11.0428C5.25991 10.5913 4.11164 10.5968 3.11567 11.0565L0.343426 12.318C0.0488581 12.452 -0.0812582 12.7994 0.0528033 13.094C0.186826 13.3885 0.534245 13.5187 0.828774 13.3846L3.60391 12.1218C4.29461 11.803 5.08859 11.7993 5.78288 12.1117L9.23199 13.659C9.53344 13.7946 9.72664 14.0961 9.72664 14.424C9.72664 15.0304 9.10246 15.4407 8.54344 15.189L5.56108 13.847C5.26589 13.7141 4.9191 13.8458 4.78632 14.1408C4.65351 14.436 4.78511 14.7828 5.08019 14.9156L8.06255 16.2576C9.56262 16.9327 11.2048 15.6122 10.8523 13.9968C15.2275 13.0013 17.2401 12.544 17.2681 12.5357C18.0578 12.3023 18.8281 12.8954 18.8281 13.7C18.8281 14.127 18.5999 14.5275 18.2339 14.7443L11.9213 18.4622C11.2554 18.8567 10.4546 18.9363 9.7241 18.6804L4.88117 16.9855C4.75066 16.9398 4.6082 16.9418 4.47902 16.991L0.377488 18.5535C0.0750688 18.6687 -0.0766489 19.0072 0.0385456 19.3096C0.15374 19.612 0.492292 19.7638 0.794673 19.6485L4.69613 18.1623L9.33684 19.7864C10.3735 20.1495 11.5352 20.053 12.5173 19.4711L18.8299 15.7533C19.5517 15.3257 20 14.5389 20 13.7C20 12.1289 18.4954 10.9645 16.955 11.4065Z" fill="#404040"/>
</svg>
