<svg width="30" height="30" viewBox="0 0 30 30" fill="none" xmlns="http://www.w3.org/2000/svg">
<path d="M14.9956 0C6.72088 0 0 6.72288 0 15C0 23.2771 6.72088 30 14.9956 30C21.4351 30 26.9138 25.9241 29.0344 20.2148C29.068 20.1368 29.0854 20.0527 29.0855 19.9676C29.0856 19.8826 29.0683 19.7984 29.0347 19.7203C29.0011 19.6422 28.952 19.5718 28.8903 19.5133C28.8285 19.4548 28.7555 19.4096 28.6757 19.3803C28.5959 19.351 28.511 19.3384 28.4261 19.3431C28.3412 19.3478 28.2582 19.3697 28.1821 19.4076C28.106 19.4455 28.0385 19.4985 27.9836 19.5635C27.9287 19.6284 27.8876 19.7038 27.8628 19.7852C25.9195 25.0172 20.9086 28.75 14.9956 28.75C7.39618 28.75 1.24963 22.6016 1.24963 15C1.24963 7.39837 7.39618 1.25 14.9956 1.25C20.9086 1.25 25.9195 4.98281 27.8628 10.2148C27.8876 10.2962 27.9287 10.3716 27.9836 10.4365C28.0385 10.5015 28.106 10.5545 28.1821 10.5924C28.2582 10.6303 28.3412 10.6522 28.4261 10.6569C28.511 10.6616 28.5959 10.649 28.6757 10.6197C28.7555 10.5904 28.8285 10.5452 28.8903 10.4867C28.952 10.4282 29.0011 10.3578 29.0347 10.2797C29.0683 10.2016 29.0856 10.1174 29.0855 10.0324C29.0854 9.94735 29.068 9.86323 29.0344 9.78516C26.9138 4.07594 21.4351 0 14.9956 0ZM14.2926 9.375C14.1527 9.39013 14.022 9.45207 13.9216 9.55078L8.92313 14.5508C8.86291 14.6091 8.81502 14.6789 8.78232 14.756C8.74961 14.8332 8.73276 14.9162 8.73276 15C8.73276 15.0838 8.74961 15.1668 8.78232 15.244C8.81502 15.3211 8.86291 15.3909 8.92313 15.4492L13.9216 20.4492C13.9806 20.5082 14.0506 20.555 14.1277 20.5869C14.2047 20.6189 14.2873 20.6353 14.3707 20.6353C14.4541 20.6353 14.5367 20.6189 14.6138 20.587C14.6909 20.555 14.7609 20.5082 14.8198 20.4492C14.8788 20.3903 14.9256 20.3202 14.9575 20.2431C14.9894 20.1661 15.0059 20.0834 15.0059 20C15.0059 19.9166 14.9894 19.834 14.9575 19.7569C14.9256 19.6798 14.8788 19.6098 14.8198 19.5508L10.8952 15.625H29.3663C29.4491 15.6262 29.5313 15.6109 29.6081 15.58C29.6849 15.5491 29.7549 15.5033 29.8138 15.4451C29.8728 15.3869 29.9196 15.3177 29.9516 15.2412C29.9835 15.1648 30 15.0828 30 15C30 14.9172 29.9835 14.8352 29.9516 14.7588C29.9196 14.6823 29.8728 14.6131 29.8138 14.5549C29.7549 14.4967 29.6849 14.4509 29.6081 14.42C29.5313 14.3891 29.4491 14.3738 29.3663 14.375H10.8952L14.8198 10.4492C14.918 10.3578 14.9842 10.2371 15.0085 10.1051C15.0328 9.97313 15.014 9.83682 14.9549 9.71634C14.8958 9.59587 14.7994 9.49762 14.6802 9.43615C14.5609 9.37468 14.425 9.35324 14.2926 9.375Z" fill="#404040"/>
</svg>
