<svg width="30" height="30" viewBox="0 0 30 30" fill="none" xmlns="http://www.w3.org/2000/svg">
<path d="M15 30C6.71633 30 0 23.2837 0 15C0 6.71633 6.71633 0 15 0C23.2837 0 30 6.71633 30 15C30 23.2837 23.2837 30 15 30ZM23.2347 25.6806C21.851 22.4939 18.698 20.25 15 20.25C11.302 20.25 8.14592 22.4878 6.76224 25.6775C9.03979 27.4408 11.8959 28.5 15 28.5C18.1041 28.5 20.9541 27.4439 23.2347 25.6806ZM19.5 13.5C19.5 11.0143 17.4857 9 15 9C12.5143 9 10.5 11.0143 10.5 13.5C10.5 15.9857 12.5143 18 15 18C17.4857 18 19.5 15.9857 19.5 13.5ZM15 1.5C7.54592 1.5 1.5 7.54592 1.5 15C1.5 18.7898 3.06429 22.2092 5.58061 24.6612C6.95204 21.851 9.52959 19.7388 12.652 19.0224C10.5061 18.1102 9 15.9796 9 13.5C9 10.1878 11.6878 7.5 15 7.5C18.3122 7.5 21 10.1878 21 13.5C21 15.9796 19.4939 18.1102 17.348 19.0224C20.4704 19.7357 23.0449 21.851 24.4194 24.6612C26.9327 22.2122 28.5 18.7898 28.5 15C28.5 7.54592 22.4541 1.5 15 1.5Z" fill="#404040"/>
</svg>
